<svg width="27" height="47" viewBox="0 0 27 47" fill="none" xmlns="http://www.w3.org/2000/svg">
<path d="M26.9706 46.0934C26.9231 45.8813 26.7964 45.7121 26.6697 45.5655C26.5295 45.4054 26.3824 45.252 26.2467 45.0873C26.181 45.0084 26.1154 44.9272 26.0905 44.8369C26.0657 44.7467 26.0838 44.6497 26.12 44.5595C26.1607 44.4489 26.2218 44.3407 26.2625 44.2143C26.3032 44.0903 26.31 43.9392 26.258 43.8128C26.2444 43.7767 26.2489 43.7294 26.2308 43.6933C26.1245 43.5106 25.9684 43.3888 25.8394 43.2467C25.7851 43.188 25.7534 43.1113 25.7037 43.0504C25.6358 42.9669 25.5634 42.8857 25.5 42.8C25.3168 42.2203 25.1335 41.6406 24.9503 41.0609C24.6924 40.2714 24.405 39.4909 24.1448 38.7014C23.982 38.2119 23.8213 37.7224 23.6584 37.2329C23.4141 36.493 23.1448 35.7599 22.7738 35.0742C22.5543 34.6637 22.2942 34.2712 22.043 33.8809C21.9163 33.6824 21.8032 33.4817 21.6991 33.2719C21.5951 33.0621 21.4887 32.8456 21.3485 32.6448C21.2783 32.5456 21.1991 32.4486 21.1086 32.3628C21.0182 32.2749 20.9186 32.2095 20.8349 32.1328C20.7489 32.0583 20.6833 31.9749 20.6403 31.8711C20.5951 31.7673 20.5679 31.6523 20.534 31.5395C20.4706 31.3342 20.396 31.1177 20.2263 30.962C20.2218 30.8109 20.1788 30.6643 20.1132 30.5357C20.0679 30.4455 20.0159 30.362 19.9593 30.2831C19.9322 30.2447 19.9028 30.2064 19.8734 30.168C19.862 30.1522 19.8394 30.1252 19.8168 30.1026C19.7942 30.0801 19.7715 30.0598 19.7444 30.044C19.7353 30.0372 19.7105 30.0214 19.7127 30.0259H19.7082C19.7082 30.0259 19.7014 30.0259 19.6946 30.0259C19.6924 30.0259 19.6856 30.0259 19.681 30.0304C19.681 30.0304 19.681 30.0259 19.6833 30.0237C19.6833 30.0169 19.6833 30.0192 19.6833 29.9989C19.6833 29.9628 19.6788 29.9289 19.6697 29.8996C19.6471 29.8252 19.6086 29.771 19.5747 29.7214C19.5385 29.674 19.5091 29.6289 19.4752 29.5838C19.4141 29.4891 19.3575 29.3898 19.3123 29.2861C19.1743 28.9703 19.1041 28.6251 19.0566 28.2823C19.0272 28.077 19.0272 27.8672 19.0114 27.6552C18.9797 27.2311 18.8575 26.7957 18.5951 26.4484C18.5679 26.4123 18.543 26.3739 18.5182 26.3356C18.5136 26.1844 18.5091 26.0311 18.5 25.8822C18.4865 25.6656 18.4706 25.4491 18.4525 25.2325C18.4322 25.0182 18.4186 24.7994 18.3779 24.5716C18.3304 24.2874 18.1901 24.0325 18.0362 23.8069C17.8032 23.4641 17.5159 23.1708 17.2964 22.8257C17.1629 22.6204 17.077 22.3903 16.9571 22.1715C16.8937 22.061 16.8213 21.955 16.7331 21.858C16.6448 21.761 16.5362 21.6798 16.4254 21.6144C16.2014 21.4835 15.9639 21.4114 15.7421 21.3031C15.7421 21.3031 15.7421 21.3031 15.7399 21.3031C15.6833 21.1452 15.6267 20.9873 15.5679 20.8316C15.3892 20.3602 15.1856 19.9 14.991 19.4331C14.8734 19.1444 14.7444 18.8556 14.6539 18.5579C14.6222 18.4451 14.5951 18.3323 14.5838 18.215C14.5702 18.1 14.5747 17.9804 14.577 17.8631C14.5815 17.7458 14.5838 17.624 14.5679 17.5067C14.5543 17.3894 14.534 17.2721 14.5204 17.1548C14.482 16.8729 14.5408 16.5932 14.6154 16.3247C14.6878 16.0495 14.7783 15.7766 14.8326 15.4901C14.8892 15.2036 14.905 14.9081 14.8892 14.6194C14.8869 14.5811 14.8892 14.5427 14.8869 14.5044C14.9163 14.536 14.9458 14.5675 14.9774 14.5991C15.1788 14.7999 15.3847 14.9961 15.5973 15.1856C15.7399 15.3119 15.8982 15.4225 16.0385 15.551C16.1856 15.6841 16.3304 15.8195 16.448 15.9728C16.5091 16.0495 16.5702 16.1353 16.6539 16.2052C16.7376 16.2751 16.8372 16.3247 16.939 16.3563C17.1607 16.4217 17.3869 16.4127 17.6019 16.3992C17.7105 16.3924 17.8213 16.3879 17.9299 16.3608C18.0408 16.336 18.1471 16.2774 18.2263 16.1984C18.3032 16.1217 18.3643 16.0315 18.4186 15.9413L18.4978 15.8037L18.5679 15.6616C18.6562 15.4676 18.7263 15.2668 18.7738 15.057C18.8869 14.5517 18.8417 14.0194 18.6946 13.5299C18.6765 13.4555 18.672 13.3765 18.6494 13.3043C18.5838 13.1171 18.4933 12.9299 18.4096 12.7607C18.3711 12.675 18.3485 12.5893 18.3643 12.499C18.3711 12.4517 18.3824 12.4021 18.3824 12.3457C18.3824 12.2893 18.3598 12.2306 18.3281 12.19L18.0046 11.8201C17.7919 11.5855 17.586 11.3396 17.4277 11.0599C17.301 10.8456 17.2082 10.6223 17.1041 10.3945C17.0476 10.2839 16.9752 10.1712 16.862 10.099C16.8258 10.0764 16.7829 10.0629 16.7421 10.0516C16.7421 10.0493 16.7421 10.0471 16.7421 10.0448C16.7557 9.96137 16.7467 9.8734 16.7195 9.79219C16.6991 9.73806 16.6629 9.69294 16.6177 9.63881C16.5634 9.57565 16.4842 9.56437 16.4299 9.55986C16.3711 9.55309 16.31 9.55534 16.2534 9.56888C16.1267 9.59595 16.0182 9.65911 15.9118 9.71325C15.8077 9.76513 15.6991 9.81024 15.5905 9.8531C15.4593 9.90498 15.3394 9.97716 15.224 10.0584C15.2059 10.0696 15.1765 10.0584 15.1607 10.0696C15.0951 10.1125 15.0317 10.1599 14.9684 10.205L14.9503 10.1576C14.9141 10.0629 14.8801 9.96814 14.8349 9.8734C14.8055 9.81024 14.758 9.75385 14.7286 9.68843C14.6697 9.55309 14.6064 9.40872 14.4955 9.29594C14.3779 9.17413 14.2353 9.09067 14.1041 9.00044C13.9729 8.91472 13.8507 8.81998 13.7308 8.72073C13.586 8.60118 13.4299 8.50193 13.2693 8.40493C13.2467 8.3914 13.2376 8.35531 13.215 8.33952C13.0951 8.25831 12.9684 8.18613 12.8507 8.10267C12.801 8.06883 12.7715 8.01018 12.7263 7.97409C12.6358 7.89965 12.5362 7.83198 12.4593 7.74401C12.3734 7.64927 12.2964 7.54776 12.2195 7.44625C12.2286 7.36279 12.224 7.27708 12.2195 7.18685C12.2172 7.11467 12.2059 7.03797 12.215 6.96579C12.2286 6.85526 12.2534 6.74924 12.2942 6.64548C12.3145 6.58232 12.3643 6.53044 12.3982 6.46953C12.4571 6.3793 12.4774 6.27328 12.4661 6.16501C12.4865 6.1402 12.5068 6.11539 12.5272 6.09057C12.7467 5.83117 12.8598 5.48379 12.9005 5.14994C12.9141 5.03264 12.9209 4.91309 12.9231 4.79579C12.9231 4.73715 12.9231 4.67173 12.9096 4.59729C12.896 4.52511 12.8666 4.43939 12.7896 4.36946C12.7376 4.32435 12.6743 4.30179 12.5996 4.30179C12.5951 4.30179 12.5883 4.3063 12.5815 4.31082C12.577 4.31533 12.5747 4.31758 12.5724 4.32435C12.5702 4.32661 12.5702 4.3424 12.5679 4.33337C12.5679 4.32661 12.5634 4.32209 12.5657 4.30856L12.5589 4.28375L12.5521 4.20029L12.543 4.10103L12.5204 3.90479C12.5046 3.77396 12.4842 3.64538 12.4661 3.51455C12.4073 3.12431 12.3213 2.73859 12.1901 2.36639C12.1109 2.14533 12.0362 1.91976 11.9277 1.70321C11.8168 1.48667 11.6743 1.28365 11.4955 1.11447C11.3213 0.943039 11.1019 0.803185 10.8643 0.740025C10.7512 0.710701 10.6426 0.679121 10.5227 0.665587C10.4819 0.65882 10.4367 0.665587 10.396 0.683632C10.3869 0.685888 10.3801 0.692655 10.3711 0.697167C10.3462 0.634007 10.31 0.573103 10.267 0.518965C10.1109 0.322719 9.88919 0.198654 9.66295 0.117449C9.5091 0.0633118 9.34847 0.0452661 9.18783 0.0204533C9.02041 -0.00435953 8.8462 -0.00887095 8.67652 0.0362433C8.50684 0.0813575 8.35073 0.180609 8.23761 0.309184C8.11317 0.449038 8.0272 0.615961 7.9729 0.789651C7.9186 0.963341 7.89598 1.1438 7.8824 1.31974C7.87562 1.40546 7.87109 1.49343 7.86883 1.57915L7.8643 1.70773V1.76863C7.8643 1.76863 7.8643 1.78668 7.85978 1.78668C7.85752 1.78668 7.85525 1.78668 7.85299 1.78668L7.82584 1.78216C7.80322 1.78216 7.78059 1.78216 7.75797 1.78216C7.71272 1.78216 7.66521 1.78668 7.62222 1.79795C7.53172 1.81826 7.44575 1.85209 7.36883 1.90172C7.18104 2.01676 7.03625 2.19045 6.9367 2.38218C6.83715 2.57843 6.79417 2.78596 6.74892 2.98897C6.73534 3.04987 6.69914 3.10401 6.68557 3.16491C6.61543 3.47395 6.55209 3.79426 6.34168 4.03111C6.25571 4.1281 6.13806 4.19126 6.02494 4.24766C5.95932 4.27924 5.89145 4.30405 5.81905 4.31758C5.78964 4.32209 5.73308 4.32886 5.68331 4.31984C5.63353 4.31758 5.5815 4.30405 5.53172 4.29277H5.50684H5.49326C5.491 4.29277 5.48195 4.28826 5.48647 4.29954C5.49552 4.33112 5.50684 4.36044 5.52041 4.38751C5.5453 4.44165 5.57923 4.49127 5.62222 4.53639C5.71272 4.62662 5.80548 4.67173 5.90729 4.70105C6.0091 4.73038 6.1177 4.73715 6.22177 4.72136C6.38693 4.69654 6.53851 4.62887 6.67878 4.54541C6.67652 4.59052 6.67426 4.63564 6.68104 4.68075C6.69236 4.76196 6.73308 4.8364 6.75797 4.91084C6.81 5.06874 6.88919 5.21536 6.99779 5.33716C7.05661 5.40258 7.11996 5.46348 7.18557 5.51988L7.28285 5.60559C7.31453 5.63266 7.35299 5.66199 7.37109 5.6868C7.38693 5.70936 7.38014 5.74094 7.3643 5.78154C7.35299 5.8244 7.34168 5.86726 7.33715 5.91012C7.3281 5.99809 7.33715 6.08832 7.36204 6.17403C7.39145 6.2778 7.44349 6.37254 7.5091 6.456C7.57471 6.53946 7.65163 6.60713 7.72629 6.6748C7.74892 6.6951 7.75344 6.73345 7.77381 6.7515C7.88693 6.85526 8.00457 6.95225 8.08602 7.08083C8.11996 7.13497 8.12222 7.20038 8.13806 7.25677C8.14485 7.27933 8.15163 7.30189 8.15616 7.3267C8.16294 7.35828 8.16747 7.38986 8.16747 7.4237C8.16521 7.49137 8.15163 7.56355 8.1358 7.61994C8.14032 7.62897 8.12448 7.65378 8.12901 7.66055C8.21951 7.60641 8.28512 7.5613 8.35752 7.47558C8.36204 7.48235 8.3643 7.49137 8.36883 7.49814C8.4186 7.57709 8.47969 7.64476 8.53399 7.71694C8.58829 7.78687 8.62675 7.86356 8.66521 7.94477C8.71046 8.04176 8.77607 8.12522 8.85073 8.20192C8.86204 8.2132 8.85073 8.24027 8.86204 8.2538C8.92313 8.32598 8.96159 8.32598 8.94123 8.42298C8.93444 8.45681 8.90276 8.48163 8.89598 8.51321C8.88014 8.57637 8.8824 8.64629 8.85752 8.7072C8.8462 8.73427 8.83715 8.76359 8.82584 8.79066C8.78512 8.77938 8.74666 8.77036 8.70593 8.76585C8.56114 8.74554 8.41408 8.7478 8.27154 8.77712C8.17426 8.79743 8.08602 8.84705 7.99552 8.87638C7.80548 8.94405 7.6177 9.03202 7.46385 9.16511C7.29643 9.30947 7.17199 9.48542 7.03625 9.65008C6.90503 9.80798 6.76249 9.96137 6.60186 10.0832C6.40955 10.2321 6.21046 10.3742 6.00457 10.5118C5.9729 10.5321 5.92991 10.5298 5.89824 10.5501C5.73534 10.6539 5.57018 10.7576 5.40729 10.8614C5.33942 10.9043 5.25797 10.9246 5.19009 10.9652C5.1358 10.999 5.08602 11.0351 5.03399 11.0734C5.0815 11.0013 5.12901 10.9291 5.16973 10.8524C5.24439 10.7193 5.31227 10.5817 5.42765 10.4847C5.53851 10.39 5.68557 10.3539 5.83037 10.2952C5.9186 10.2614 6.00457 10.205 6.07245 10.1418C6.14258 10.0787 6.20141 10.011 6.26702 9.95461C6.28738 9.93656 6.32132 9.94333 6.34168 9.92979C6.44801 9.85535 6.57471 9.7922 6.70367 9.72904C6.7557 9.70197 6.82132 9.69745 6.87335 9.66587C6.97516 9.60046 7.05887 9.50572 7.1177 9.40196C7.14032 9.36361 7.15616 9.32075 7.16294 9.27564C7.16973 9.25985 7.17878 9.2418 7.19009 9.23052C7.23082 9.19669 7.28059 9.16962 7.31453 9.12676C7.35299 9.08165 7.3824 9.02977 7.42313 8.98465C7.46159 8.93954 7.51136 8.9057 7.54982 8.84254C7.57018 8.80419 7.57924 8.75457 7.56792 8.70945C7.59507 8.68464 7.62675 8.65983 7.64032 8.62374C7.66068 8.58088 7.66295 8.53125 7.67878 8.49065C7.69009 8.4523 7.71724 8.41847 7.73534 8.3711C7.75344 8.35756 7.77154 8.33952 7.78738 8.32147C7.82358 8.27861 7.84847 8.22447 7.85978 8.16808C7.8643 8.13876 7.86883 8.10267 7.85525 8.06206C7.84168 8.01921 7.80774 7.98537 7.78059 7.96732C7.71046 7.92672 7.65163 7.92221 7.59281 7.89063C7.47516 7.82747 7.35751 7.75529 7.23082 7.71017C7.09281 7.65829 6.95028 7.62446 6.81227 7.57709C6.67652 7.53423 6.55208 7.47332 6.40955 7.42821C6.32358 7.4034 6.21724 7.39437 6.12222 7.43949C6.0272 7.4846 5.97064 7.5613 5.9186 7.62897C5.90276 7.64927 5.86883 7.65378 5.85299 7.67408C5.77154 7.7801 5.70367 7.8974 5.63353 8.01018C5.60412 8.05755 5.55435 8.08913 5.52494 8.13425C5.46611 8.22673 5.42539 8.32824 5.3643 8.41621C5.30774 8.49967 5.25344 8.58313 5.20593 8.67111C5.16747 8.71396 5.12675 8.75457 5.08828 8.79743C4.94349 8.96209 4.80548 9.13127 4.67652 9.30496C4.58828 9.42 4.51362 9.54632 4.41408 9.65008C4.21046 9.87114 3.94123 10.0133 3.70141 10.2163C3.42991 10.4306 3.26702 10.7373 3.06792 10.9945C2.87561 11.2516 2.60412 11.4276 2.35073 11.6329C2.19688 11.7569 2.05661 11.9058 1.94575 12.0727C1.83489 12.2396 1.74892 12.4178 1.66973 12.5983C1.64711 12.6524 1.60186 12.6953 1.57923 12.7494C1.46385 13.0314 1.3643 13.3156 1.2557 13.5976C1.21046 13.7149 1.14032 13.8209 1.09507 13.9359C1.00457 14.1638 0.916338 14.3984 0.868827 14.6442C0.832628 14.8315 0.832628 15.0412 0.92765 15.2194C1.01815 15.3909 1.19009 15.542 1.39371 15.551C1.39371 15.551 1.39598 15.551 1.39824 15.551C1.40276 15.5533 1.40729 15.5578 1.41181 15.56C1.54756 15.6277 1.69462 15.6773 1.8462 15.6931C1.94801 15.7044 2.05209 15.6864 2.15163 15.6841C2.36204 15.6796 2.57697 15.6525 2.77154 15.5668C2.98647 15.4788 3.16294 15.3277 3.33263 15.1901C3.50005 15.0548 3.68557 14.951 3.88466 14.8721C4.12222 14.7751 4.36204 14.6781 4.59507 14.5608C4.62901 14.5427 4.67426 14.5495 4.71046 14.5314C4.89371 14.439 5.0634 14.3262 5.23082 14.2111C5.29869 14.1638 5.3824 14.1367 5.45027 14.0893C5.47742 14.069 5.50457 14.0465 5.52946 14.0262C5.51589 14.1141 5.52494 14.2066 5.51589 14.2946C5.49552 14.4796 5.47742 14.6668 5.50005 14.854C5.52267 15.057 5.57923 15.2533 5.63806 15.4427C5.69688 15.6277 5.76249 15.8149 5.84847 15.9931C5.95254 16.2097 6.10865 16.3992 6.29869 16.5458C6.32584 16.5683 6.33942 16.609 6.36656 16.6315C6.44349 16.6902 6.52041 16.7285 6.56566 16.7872C6.61091 16.8435 6.62222 16.9315 6.6177 17.0195C6.6177 17.0939 6.57923 17.1639 6.58376 17.2473C6.58376 17.2879 6.59507 17.3308 6.61317 17.3714C6.63353 17.4142 6.66973 17.4436 6.70819 17.4639C6.73987 17.4774 6.76928 17.4842 6.79869 17.4864C6.79869 17.4977 6.79417 17.5067 6.7919 17.518C6.76249 17.6827 6.75797 17.8541 6.77607 18.021C6.78738 18.1338 6.8281 18.2421 6.85073 18.3504C6.89824 18.5804 6.96385 18.8083 7.07471 19.0158C7.19462 19.2414 7.35525 19.4354 7.49326 19.6429C7.62901 19.8436 7.73082 20.0624 7.81679 20.2858C7.92086 20.5564 8.02946 20.8249 8.14937 21.0933C8.16747 21.1339 8.16068 21.1813 8.17652 21.2219C8.26476 21.4317 8.36883 21.6369 8.47516 21.8377C8.51815 21.9212 8.54077 22.0136 8.58828 22.0971C8.5815 22.1061 8.57471 22.1129 8.57019 22.1219C8.55661 22.149 8.55887 22.1851 8.5453 22.2121C8.51362 22.2663 8.47516 22.3204 8.46385 22.3858C8.44801 22.4558 8.4548 22.5279 8.45706 22.5956C8.45706 22.6633 8.45706 22.731 8.45706 22.7986C8.45933 22.8821 8.49552 22.9588 8.54304 23.0219C8.54982 23.031 8.53399 23.0535 8.53851 23.0625C8.57019 23.1144 8.6177 23.1573 8.65842 23.2047C8.66747 23.2137 8.66973 23.2272 8.672 23.2385C8.61091 23.252 8.55887 23.2633 8.50684 23.2791C8.2919 23.34 8.08376 23.4189 7.88014 23.5092C7.38014 23.7302 6.90955 24.0077 6.4367 24.2648C6.1177 24.4385 5.80322 24.6145 5.46385 24.7476C4.75797 25.0228 4.02041 25.21 3.30322 25.4762C2.91408 25.6183 2.53172 25.7829 2.16973 25.9837C1.80322 26.1799 1.46611 26.4236 1.12901 26.6581C0.805478 26.886 0.4548 27.1251 0.262492 27.4928C0.0656595 27.8537 0.0136233 28.2732 0.00683594 28.6725C0.0158857 29.6447 0.0882839 30.6034 0.147107 31.5666C0.156157 31.7087 0.14032 31.8531 0.147107 31.9974L0.300954 34.2396L0.312266 34.4719C0.314528 34.5125 0.321316 34.5531 0.337153 34.596C0.35299 34.6389 0.386926 34.6795 0.429913 34.6998C0.522673 34.7404 0.604121 34.7223 0.678782 34.7246H0.909551C1.21272 34.7246 1.51815 34.7449 1.81905 34.7922C2.11996 34.8374 2.41408 34.9186 2.70593 35.011C2.85978 35.0584 3.01362 35.108 3.16973 35.1532C3.26928 35.3675 3.36883 35.5817 3.47064 35.796C3.7738 36.4276 4.08376 37.0547 4.40276 37.6773C4.5091 37.8893 4.6358 38.0901 4.62675 38.2999C4.61543 38.5119 4.47969 38.7104 4.33263 38.8886C3.71724 39.6465 2.92765 40.2533 2.05887 40.6954C1.82358 40.815 1.57923 40.9188 1.33263 41.0135C1.20819 41.0586 1.08376 41.1037 0.957062 41.1398C0.83489 41.1782 0.690094 41.212 0.576972 41.3112C0.520411 41.3564 0.470637 41.4443 0.493261 41.5278C0.511361 41.6135 0.574709 41.6654 0.629008 41.706C0.74213 41.794 0.884664 41.8301 1.02041 41.8436C1.29417 41.8662 1.55887 41.812 1.82132 41.8346C1.94801 41.8436 2.07018 41.8819 2.20141 41.9045C2.33263 41.9271 2.46837 41.9271 2.5996 41.9045C2.86204 41.8616 3.10186 41.7489 3.33942 41.6451C3.80774 41.424 4.31679 41.327 4.83037 41.3203C5.14032 41.3135 5.45027 41.3383 5.76023 41.3722C6.07018 41.4082 6.3824 41.4534 6.70367 41.4488C7.02267 41.4488 7.35525 41.3789 7.63353 41.2052C7.77154 41.1173 7.89824 41.009 7.99326 40.8736C8.09055 40.7406 8.15163 40.5781 8.16747 40.4157C8.18557 40.2217 8.172 40.0255 8.11996 39.8428C8.04756 39.6059 7.9729 39.3781 7.88466 39.148C7.79643 38.9202 7.68557 38.6946 7.54756 38.4916C7.41181 38.2886 7.26928 38.0969 7.17199 37.8781C7.07018 37.6615 6.99779 37.4314 6.92313 37.1991C6.80095 36.8179 6.70367 36.4276 6.59055 36.0442C6.36656 35.2885 6.16294 34.5238 6.06114 33.7411C5.97969 33.1366 5.93218 32.5298 5.88919 31.9207L5.82584 31.0072C5.81905 30.9079 5.81 30.8064 5.80095 30.7072C5.89371 30.7094 5.98421 30.7072 6.07471 30.6959C6.19688 30.6801 6.31227 30.6395 6.42991 30.6169C6.67652 30.5696 6.9186 30.5154 7.15616 30.4432C7.41181 30.3643 7.66295 30.2741 7.92539 30.2199C8.17878 30.168 8.43896 30.1568 8.69914 30.15C9.01362 30.1432 9.3281 30.1162 9.64032 30.0553C9.68557 30.0485 9.73761 30.062 9.78286 30.053C10.0249 30.0011 10.2625 29.9177 10.4842 29.8071C10.5747 29.7598 10.6765 29.7349 10.7648 29.6785C10.9344 29.568 11.0815 29.4304 11.2512 29.3312C11.3326 29.2838 11.4163 29.2409 11.5023 29.2026C11.5114 29.2071 11.5227 29.2139 11.5317 29.2184C11.724 29.3176 11.9118 29.4169 12.0928 29.5252C12.2127 29.5996 12.3439 29.665 12.4525 29.7575C12.6833 29.9492 12.8801 30.1793 13.086 30.4004C13.3077 30.6417 13.534 30.8854 13.7625 31.1245C13.9842 31.3568 14.2127 31.5869 14.4774 31.7786C14.6381 31.8937 14.8077 31.9839 14.9435 32.1057C15.0838 32.2252 15.1991 32.3741 15.3032 32.5343C15.3349 32.5816 15.3417 32.6425 15.3711 32.6922C15.4458 32.8208 15.5204 32.9516 15.6041 33.0802C15.6856 33.2087 15.7783 33.3305 15.8734 33.4478C15.9525 33.5448 16.0159 33.6554 16.0996 33.7478C16.2648 33.9306 16.448 34.093 16.6064 34.2802C16.853 34.5667 17.0724 34.8689 17.2399 35.205C17.2489 35.2253 17.258 35.2479 17.267 35.2637C17.2806 35.284 17.2987 35.3133 17.3032 35.3156C17.3077 35.3156 17.3077 35.2953 17.3032 35.275C17.3123 35.2885 17.3191 35.302 17.3281 35.3178C17.4525 35.5569 17.5657 35.8005 17.6969 36.0351C17.8394 36.29 17.9887 36.5404 18.1222 36.7998C18.2534 37.0502 18.3666 37.3119 18.4797 37.5713C18.6132 37.8871 18.767 38.1916 18.9277 38.4939C18.9503 38.539 18.9525 38.5954 18.9752 38.6405C19.0951 38.8773 19.224 39.1097 19.3462 39.3465C19.396 39.4458 19.4209 39.554 19.4706 39.6533C19.4955 39.7029 19.5295 39.7616 19.586 39.7954C19.6426 39.8292 19.7014 39.8383 19.7557 39.845C19.8643 39.8586 19.9752 39.8653 20.0838 39.8699C20.2625 39.8766 20.4458 39.8631 20.6222 39.8247C20.7467 40.0187 20.8937 40.1969 21.0521 40.3593C21.1743 40.4857 21.3168 40.5917 21.4412 40.7135C21.7014 40.9661 21.9458 41.23 22.1946 41.494C22.4616 41.7782 22.7286 42.0692 22.9639 42.3827C23.1946 42.685 23.3982 43.0098 23.586 43.3414C23.81 43.7407 24.0227 44.1444 24.1064 44.5911C24.12 44.6565 24.1064 44.7264 24.1109 44.7918C24.1494 45.1369 24.129 45.4956 24.0295 45.8362C23.9887 45.9761 23.9073 46.1137 23.9163 46.2783C23.9209 46.3776 23.9706 46.461 23.9774 46.5355C23.982 46.5716 23.9706 46.6054 23.9571 46.6483C23.9435 46.6889 23.9254 46.743 23.9412 46.7949C23.9616 46.8648 24.0385 46.9009 24.0951 46.9122C24.1562 46.9257 24.2127 46.928 24.2715 46.937C24.3847 46.9505 24.4955 46.9663 24.6086 46.9776C24.7218 46.9889 24.8417 46.9911 24.9571 46.9483C25.0091 46.928 25.0566 46.8941 25.0951 46.8535C25.1109 46.8626 25.129 46.8693 25.1448 46.8783C25.2082 46.9099 25.2693 46.946 25.3394 46.9731C25.4254 47.0047 25.5227 46.9934 25.6041 46.955C25.6154 46.9505 25.6358 46.9686 25.6494 46.9618C25.6924 46.9415 25.7286 46.9122 25.7625 46.8783C25.767 46.8829 25.7715 46.8874 25.7783 46.8896C25.8281 46.9235 25.8892 46.9347 25.9412 46.9505C25.9933 46.9641 26.043 46.9866 26.0996 47.0002C26.1697 47.0159 26.2444 46.9911 26.2964 46.9438C26.3032 46.937 26.3258 46.9528 26.3349 46.9438C26.3801 46.9077 26.405 46.8513 26.4209 46.8017C26.4209 46.7994 26.4231 46.7971 26.4254 46.7949C26.4571 46.8017 26.491 46.8084 26.5272 46.8107C26.5566 46.8107 26.5905 46.8062 26.6177 46.7904C26.6448 46.7746 26.6652 46.7498 26.6833 46.7272C26.6878 46.7204 26.7127 46.7317 26.7172 46.7227C26.7308 46.7047 26.7376 46.6866 26.7444 46.6663C26.7783 46.655 26.8145 46.6415 26.8462 46.6189C26.9186 46.5648 26.9661 46.4926 26.991 46.4114C27.0249 46.3031 27.0001 46.1949 26.9797 46.0956L26.9706 46.0934ZM15.862 11.9509C15.8756 11.9712 15.8779 11.996 15.8824 12.0208C15.9231 12.2645 16.2127 12.4314 16.4458 12.3457C16.4933 12.5419 16.6494 12.7066 16.8417 12.7652C16.7851 13.1374 16.7421 13.5119 16.7105 13.8886C16.491 13.1577 16.0883 12.4833 15.5498 11.9419C15.5385 11.9374 15.5295 11.9306 15.5249 11.9171C15.534 11.9261 15.5408 11.9351 15.5498 11.9419C15.62 11.9712 15.8168 11.8878 15.862 11.9509Z" fill="#B0B0B0"/>
</svg>
