<svg width="32" height="33" viewBox="0 0 32 33" fill="none" xmlns="http://www.w3.org/2000/svg">
<path d="M32 28.5672C31.9889 28.4943 31.9443 28.4395 31.9065 28.397L31.7862 28.2713C31.617 28.1112 31.421 27.9795 31.2161 27.866C31.1537 27.8335 31.1047 27.7829 31.0424 27.7504C30.7128 27.5903 30.3654 27.4748 30.0269 27.3451C29.8866 27.2904 29.7596 27.2133 29.6238 27.1525C29.3588 27.033 29.0893 26.9114 28.8644 26.731C28.6884 26.5972 28.5437 26.433 28.3833 26.281C28.3299 26.2304 28.2742 26.1797 28.2185 26.1331C28.2163 26.1189 28.2141 26.1027 28.2119 26.0905C28.194 25.9973 28.174 25.9061 28.154 25.8149C28.1005 25.5919 28.0493 25.369 27.9958 25.146C27.9624 24.9961 27.9112 24.8501 27.8934 24.6981C27.8578 24.3799 27.8734 24.0637 27.9246 23.7496C27.978 23.4091 28.076 23.0706 28.1807 22.7342C28.2831 22.4079 28.39 22.0775 28.439 21.737C28.5036 21.3256 28.4791 20.9081 28.4257 20.5007C28.4167 20.4399 28.4368 20.377 28.4257 20.3162C28.4034 20.1582 28.3789 20.0021 28.3522 19.846C28.3678 19.54 28.37 19.2319 28.3499 18.9259C28.3188 18.4719 28.2475 18.0179 28.1339 17.574C28.1027 17.4625 28.076 17.3531 28.0426 17.2437C28.007 17.1322 27.9803 17.0268 27.9313 16.9092C27.9068 16.8505 27.8734 16.7897 27.8266 16.7329C27.7798 16.6762 27.7175 16.6295 27.6573 16.5971C27.5326 16.5302 27.4124 16.4937 27.2899 16.4593C26.673 16.2972 26.0517 16.36 25.4726 16.1978C25.0384 16.0722 24.642 15.8452 24.2166 15.677C23.7957 15.5027 23.3637 15.3527 22.9227 15.225C22.3949 15.077 21.8604 14.9392 21.3104 14.85C21.2101 14.8338 21.1077 14.8217 21.0053 14.8075C21.0186 14.8014 21.0342 14.7953 21.0476 14.7892C21.1522 14.7365 21.248 14.6656 21.3527 14.6149C21.5732 14.5075 21.7959 14.4062 22.0074 14.2846C22.2368 14.1549 22.4573 14.013 22.6889 13.8853C22.9116 13.7596 23.1454 13.6482 23.377 13.5387C23.6576 13.407 23.9271 13.2529 24.1899 13.0928C24.23 13.0685 24.2812 13.0665 24.3213 13.0442C24.5284 12.9246 24.7288 12.7929 24.9337 12.6692C25.0183 12.6186 25.1163 12.5882 25.2032 12.5395C25.3724 12.4402 25.5328 12.3186 25.6575 12.1686C25.7043 12.1098 25.7443 12.045 25.7666 11.974C25.7889 11.9011 25.7866 11.8241 25.7666 11.7511C25.7599 11.7248 25.7488 11.6964 25.7354 11.67C25.7488 11.6518 25.7599 11.6315 25.7644 11.6092C25.78 11.5565 25.78 11.4998 25.7866 11.4471C25.7933 11.3964 25.8156 11.3478 25.8312 11.2951C25.849 11.2322 25.8379 11.1633 25.8067 11.1025C25.8022 11.0944 25.8223 11.0782 25.8178 11.0681C25.8111 11.0539 25.8 11.0438 25.7911 11.0296C25.8111 11.0012 25.8312 10.9728 25.8401 10.9384C25.8579 10.8836 25.8601 10.8249 25.8735 10.7722C25.8846 10.7195 25.9158 10.6729 25.9314 10.61C25.9381 10.5715 25.9336 10.531 25.918 10.4965C25.9002 10.4621 25.8735 10.4337 25.8468 10.4094C25.8379 10.4033 25.8512 10.381 25.8423 10.3729C25.7978 10.3344 25.7377 10.3121 25.6842 10.2939C25.6664 10.2878 25.6575 10.2695 25.6419 10.2574C25.6441 10.2351 25.6441 10.2128 25.6419 10.1905C25.6352 10.1459 25.6018 10.1074 25.5884 10.0669C25.5595 9.98173 25.5105 9.89863 25.4348 9.84391C25.3546 9.78311 25.2566 9.75068 25.1675 9.7142L25.0384 9.65947C24.9961 9.64123 24.9493 9.61894 24.8914 9.61286C24.8179 9.60475 24.7422 9.6392 24.6976 9.67366C24.6509 9.71014 24.6175 9.7446 24.5774 9.78108C24.5662 9.79121 24.5373 9.78311 24.5262 9.79324C24.4638 9.84594 24.4037 9.90471 24.3369 9.95538C24.3079 9.97565 24.2678 9.97565 24.2367 9.99389C24.2233 10.002 24.2122 10.0101 24.201 10.0182C24.1943 10.004 24.1877 9.99186 24.1788 9.9797C24.1053 9.88242 23.9805 9.82769 23.8469 9.8358C23.7601 9.84188 23.6933 9.88444 23.6265 9.90877L23.4193 9.98376C23.3525 10.0081 23.2946 10.0202 23.2145 10.0446C23.1254 10.0709 23.0474 10.1439 23.0163 10.2189C22.9828 10.2939 22.9739 10.3709 22.965 10.4438C22.9517 10.5877 22.916 10.7215 22.8648 10.8532C22.8025 11.0113 22.7423 11.1674 22.6733 11.3235C22.6644 11.3478 22.6288 11.3579 22.6176 11.3802C22.5597 11.4937 22.4974 11.6092 22.4216 11.7166C22.4461 11.5991 22.4662 11.4795 22.464 11.3579C22.464 11.1694 22.4283 10.9809 22.3816 10.8005C22.337 10.6222 22.268 10.4519 22.2524 10.2797C22.2257 10.075 22.2947 9.8885 22.4172 9.70609C22.435 9.67974 22.4751 9.66758 22.4951 9.64123C22.5976 9.50746 22.7112 9.36762 22.8025 9.21764C22.8403 9.15683 22.896 9.10211 22.9272 9.03523C22.9851 8.90349 23.0051 8.76364 23.0318 8.62785C23.0563 8.50219 23.0652 8.37045 23.0497 8.24073C23.0497 8.24073 23.0497 8.24073 23.0497 8.23871C23.1231 8.17588 23.1966 8.10697 23.2434 8.02387C23.2946 7.93469 23.3214 7.83538 23.3503 7.74215C23.377 7.65094 23.4104 7.55974 23.4305 7.46245C23.4572 7.33882 23.4193 7.23343 23.4683 7.16046C23.475 7.1483 23.504 7.15438 23.5129 7.14628C23.5641 7.09763 23.6509 7.05507 23.7378 7.01656C23.7734 7.00237 23.8247 7.0044 23.8603 6.98008C23.9316 6.93346 23.9805 6.86253 24.005 6.78551C24.0117 6.76727 24.0117 6.75106 24.0095 6.73281C24.1075 6.69836 24.201 6.65782 24.2923 6.61121C24.3591 6.57473 24.4438 6.5119 24.4638 6.40853C24.4727 6.35381 24.4527 6.31125 24.4438 6.27679C24.4326 6.24234 24.4282 6.21801 24.4349 6.19775C24.4438 6.15924 24.4972 6.12276 24.5596 6.10046C24.6843 6.04371 24.9137 6.08627 25.054 5.94035C25.1163 5.86738 25.1208 5.77618 25.1096 5.69713C25.1007 5.61606 25.0785 5.53702 25.0451 5.46203C24.9671 5.27962 24.8313 5.13977 24.7511 4.97966C24.7377 4.95534 24.7555 4.92291 24.7466 4.90061C24.7021 4.77495 24.6843 4.63511 24.7021 4.49323C24.711 4.43445 24.7466 4.38176 24.76 4.32501C24.7689 4.28853 24.7778 4.25205 24.7867 4.21556C25.0094 3.87709 25.1475 3.4839 25.1609 3.07854C25.1787 2.50699 24.9493 1.93139 24.5618 1.49361C24.3257 1.21797 24.0318 0.995023 23.7244 0.800453C23.259 0.506571 22.7379 0.301867 22.1945 0.172154C21.8693 0.0971631 21.5375 0.0282529 21.1968 0.0100119C20.8516 -0.00620226 20.4975 0.0262261 20.1657 0.129591C19.8339 0.23093 19.5265 0.395099 19.2727 0.60791C19.1524 0.709248 19.0299 0.804506 18.9119 0.907872C18.8607 0.948407 18.825 1.00516 18.7961 1.06191C18.7092 1.01732 18.6446 0.968675 18.5845 0.922059C18.3885 0.761944 18.2349 0.559267 18.0367 0.384965C17.9164 0.277546 17.7739 0.180261 17.6135 0.117431C17.4532 0.0546009 17.2817 0.0201458 17.1102 0.00595837C16.7673 -0.0183629 16.4265 0.0343332 16.1058 0.117431C15.6716 0.23093 15.2663 0.399152 14.852 0.54508C14.42 0.697088 13.9902 0.849096 13.5492 0.968675C13.1083 1.09028 12.6584 1.17541 12.2019 1.19162C11.7097 1.21189 11.2064 1.15514 10.7543 0.976782C10.6964 0.956514 10.643 0.930166 10.5873 0.903818C10.5316 0.879497 10.4804 0.849095 10.427 0.818694C10.3735 0.790319 10.3268 0.757891 10.2733 0.721409L10.211 0.678847L10.1798 0.658579C10.1798 0.658579 10.1686 0.646418 10.1664 0.652499L10.162 0.668713C10.1508 0.709248 10.133 0.759917 10.1263 0.794373C10.0796 1.02745 10.1286 1.27269 10.251 1.47739C10.329 1.60913 10.4403 1.72669 10.5717 1.81789C10.2778 1.74493 9.99494 1.63954 9.72993 1.50374L9.63194 1.45105L9.52727 1.40038C9.52727 1.40038 9.51391 1.39227 9.51836 1.39835L9.52282 1.41051L9.5295 1.43483L9.54509 1.4855L9.57404 1.58684C9.58517 1.62738 9.59185 1.63751 9.59853 1.6598L9.6208 1.72061C9.63417 1.76317 9.65644 1.80168 9.67425 1.84221C9.74997 2.00233 9.84573 2.15231 9.95931 2.29216C10.3156 2.73399 10.8412 3.06233 11.4269 3.19812C11.6429 3.24879 11.8634 3.27717 12.0861 3.28325H12.0816L12.0349 3.29946C12.0282 3.30149 12.0148 3.30352 12.0148 3.30757L12.0416 3.3177L12.1462 3.35419C12.2153 3.37851 12.2799 3.39877 12.3489 3.41904C12.4179 3.43728 12.4847 3.45755 12.5582 3.46971C12.5939 3.47579 12.6339 3.48593 12.6629 3.48998L12.7497 3.50214C12.9791 3.53254 13.213 3.53457 13.4423 3.52038C13.8209 3.49606 14.2018 3.44539 14.5692 3.35216C14.93 3.26095 15.2819 3.14543 15.636 3.04409C15.8141 2.99342 15.9923 2.94478 16.1704 2.90424C16.3486 2.86371 16.5357 2.82317 16.7094 2.86776C16.7183 2.86979 16.725 2.87384 16.7339 2.87789C16.5379 2.89614 16.3419 2.93059 16.1548 2.98531C16.0457 3.01774 15.9388 3.05625 15.8342 3.10084L15.7562 3.13529C15.7339 3.14543 15.6916 3.1657 15.6627 3.18191L15.5691 3.23258L15.5224 3.25893L15.4979 3.27109C15.4979 3.27109 15.4979 3.27717 15.4956 3.28122L15.8097 3.36027C15.8898 3.38053 15.9678 3.39877 16.0479 3.41499C16.2083 3.44944 16.3709 3.47579 16.5357 3.48795C16.863 3.5143 17.2038 3.47579 17.4977 3.33797C17.4554 3.5974 17.4398 3.86899 17.4443 4.12031C17.4421 4.16084 17.4354 4.18314 17.4131 4.20948C17.3908 4.23583 17.3485 4.26421 17.3084 4.29461C17.2283 4.35338 17.1481 4.41216 17.059 4.45878C16.8786 4.55606 16.676 4.62497 16.4778 4.60268C16.2773 4.58444 16.088 4.49323 15.8921 4.40608C15.6827 4.31285 15.4489 4.21354 15.1928 4.22772C14.9411 4.24597 14.7296 4.35744 14.5113 4.43445C14.0882 4.5966 13.6606 4.74455 13.2308 4.89251C12.9725 4.98371 12.7141 5.08708 12.4758 5.22692C12.2375 5.36474 12.0282 5.54918 11.8567 5.7478C11.8055 5.80658 11.7342 5.8532 11.6852 5.914C11.4314 6.23423 11.2087 6.57067 10.9971 6.91117C10.9102 7.05304 10.8011 7.18276 10.7187 7.32666C10.5561 7.61041 10.4225 7.90631 10.2755 8.19614C10.1753 8.39679 10.0818 8.59947 9.99717 8.80417C9.99049 8.81228 9.98381 8.82039 9.97713 8.83052C9.81233 9.05144 9.6698 9.28857 9.55399 9.53381C9.47605 9.70001 9.42483 9.87431 9.35802 10.0425C9.21549 10.3932 9.0841 10.7458 8.98611 11.1086C8.87698 11.4998 8.79013 11.895 8.67655 12.2821C8.56743 12.6591 8.43381 13.032 8.27569 13.3928C8.07971 13.8265 7.88596 14.2623 7.60982 14.6555C7.5675 14.7142 7.50515 14.7568 7.45838 14.8115C7.22454 15.0993 6.92167 15.3506 6.69674 15.6628C6.60321 15.7905 6.50522 15.9181 6.44286 16.0641C6.32261 16.3498 6.28697 16.6539 6.26693 16.9538C6.24243 17.347 6.29143 17.7422 6.38051 18.1253C6.37828 18.1273 6.37383 18.1294 6.3716 18.1314C6.26025 18.2246 6.16226 18.332 6.07763 18.4476C5.87052 18.7313 5.7369 19.0536 5.64114 19.3758C5.57656 19.5927 5.54315 19.8156 5.4808 20.0305C5.41621 20.2554 5.3405 20.4743 5.24473 20.6871C5.14897 20.8979 5.02649 21.0965 4.88396 21.285C4.5744 21.6944 4.17354 22.0471 3.77268 22.3937C3.38296 22.7322 2.991 23.0787 2.69036 23.4942C2.32067 23.9928 2.07793 24.5522 1.87304 25.1156C1.84187 25.1987 1.79065 25.2758 1.75947 25.3609C1.60803 25.8027 1.50113 26.2547 1.41205 26.7087C1.37642 26.8951 1.31852 27.0796 1.28734 27.2701C1.23167 27.643 1.21162 28.018 1.1849 28.3929C1.16486 28.6828 1.16263 28.9726 1.15372 29.2604C1.14259 29.5239 1.11586 29.7914 0.99115 30.0265C0.986696 30.0285 0.980015 30.0326 0.975561 30.0346C0.937702 30.0589 0.90207 30.0853 0.866438 30.1116C0.781811 30.1785 0.703866 30.2515 0.637056 30.3325C0.590289 30.3873 0.565792 30.4542 0.521251 30.5089C0.429944 30.6244 0.331956 30.7399 0.2696 30.8717C0.200562 31.0156 0.160476 31.1696 0.131525 31.3216C0.100347 31.4696 0.0869851 31.6216 0.0713961 31.7675C0.055807 31.9418 0.0246289 32.112 0.0246289 32.2985C0.0246289 32.3249 -0.00209517 32.3512 0.000131839 32.3796C0.00235885 32.5255 0.055807 32.6816 0.160476 32.793C0.200563 32.8397 0.231741 32.9005 0.29187 32.9349C0.33641 32.9613 0.389858 32.9755 0.443306 32.9815C0.4923 32.9856 0.556884 32.9896 0.603651 32.9552C0.608105 32.9511 0.610332 32.9471 0.614786 32.943C0.652645 32.9592 0.692731 32.9714 0.73059 32.9775C0.786265 32.9896 0.844168 33.0018 0.906524 32.9998C0.982242 32.9977 1.0446 32.9552 1.08691 32.9025C1.09359 32.8944 1.11809 32.9045 1.12477 32.8964C1.13145 32.8903 1.13368 32.8802 1.13813 32.8741C1.14704 32.8802 1.15595 32.8863 1.16486 32.8924C1.21162 32.9228 1.25839 32.9592 1.3252 32.9775C1.36529 32.9856 1.40983 32.9856 1.44769 32.9714C1.48555 32.9572 1.51227 32.9349 1.53899 32.9147C1.54567 32.9086 1.56795 32.9207 1.57685 32.9147C1.61694 32.8822 1.64589 32.8417 1.6793 32.8032C1.69266 32.789 1.72384 32.793 1.73942 32.7789C1.75279 32.7667 1.76392 32.7505 1.77506 32.7343C1.79287 32.7687 1.81737 32.8012 1.84855 32.8316C1.92427 32.9005 2.0423 32.9268 2.14474 32.9065C2.27168 32.8802 2.36744 32.8174 2.45875 32.7708C2.55228 32.7221 2.63468 32.6937 2.73044 32.7018C2.8262 32.7059 2.92642 32.7363 3.03777 32.7606C3.14689 32.7849 3.27606 32.8052 3.40523 32.7667C3.58339 32.7201 3.69919 32.5721 3.73705 32.4323C3.77936 32.2884 3.77936 32.1445 3.74818 32.0026C3.67469 31.7087 3.48317 31.4777 3.403 31.2182C3.31169 30.9629 3.38964 30.6933 3.4854 30.4298C3.71033 29.8502 3.75487 29.23 4.04883 28.6828C4.18245 28.4152 4.35393 28.1639 4.53655 27.9207C4.72584 27.6815 4.92627 27.4505 5.13784 27.2275C5.38949 26.9559 5.65005 26.6864 5.89279 26.4047C6.13776 26.1229 6.36715 25.8291 6.5698 25.521C6.62548 25.4278 6.7101 25.3487 6.76355 25.2514C6.83036 25.1237 6.90163 25.0001 6.95285 24.8663C7.01075 24.7366 7.06197 24.6029 7.10206 24.4691C7.18668 24.2036 7.26686 23.9361 7.4272 23.705C7.56082 23.5145 7.76793 23.3807 7.96391 23.2429C8.36032 22.9693 8.73668 22.6714 9.11082 22.3734C9.34466 22.187 9.57404 21.9924 9.79451 21.7917C9.87468 21.7857 9.95485 21.7796 10.035 21.7735C10.1375 21.7674 10.2421 21.7451 10.3468 21.7512C10.5651 21.7654 10.7766 21.81 10.986 21.8606C11.0995 21.889 11.2131 21.9194 11.3222 21.9579C11.4336 21.9964 11.5427 22.0471 11.6652 22.0735C11.9102 22.1302 12.1618 22.0289 12.3489 21.8931C12.5827 21.7228 12.723 21.4877 12.8656 21.2688C12.8767 21.2526 12.8923 21.2404 12.9079 21.2263C12.9079 21.2303 12.9079 21.2344 12.9101 21.2384C12.9257 21.3256 12.9279 21.4006 12.948 21.4978C12.9591 21.5485 12.9947 21.6012 13.0437 21.6357C13.0927 21.6701 13.1506 21.6843 13.2063 21.6904C13.3243 21.6985 13.4334 21.6681 13.527 21.6235C13.6205 21.5809 13.7074 21.5303 13.792 21.4776C13.9568 21.3742 14.1149 21.2668 14.2775 21.1675C14.3755 21.1067 14.4712 21.0499 14.5692 20.9952C14.665 20.9405 14.7696 20.8959 14.8765 20.8412C14.9077 20.825 14.9523 20.829 14.9834 20.8128C15.1594 20.7175 15.264 20.5676 15.3821 20.4419C15.4311 20.3872 15.5001 20.3507 15.5491 20.296C15.5491 20.296 15.5491 20.296 15.5491 20.2939C15.7718 20.2838 15.9923 20.2737 16.2127 20.2595C16.3931 20.2494 16.5757 20.221 16.7561 20.219C17.1347 20.2169 17.5133 20.2433 17.8875 20.2818C18.2972 20.3304 18.7048 20.3872 19.1168 20.4318C19.5176 20.4723 19.9207 20.4946 20.3283 20.4784C20.8182 20.4622 21.3059 20.3568 21.7558 20.1845C21.8226 20.1602 21.8983 20.1561 21.9651 20.1318C22.3125 20.0021 22.6532 19.8562 23.0207 19.7954C23.1721 19.767 23.328 19.7812 23.4817 19.7751C23.7823 19.771 24.0897 19.7893 24.3881 19.8541C24.5061 19.8805 24.6219 19.9089 24.7377 19.9413C24.731 19.9757 24.7199 20.0122 24.7132 20.0467C24.6665 20.2858 24.6331 20.5291 24.6219 20.7723C24.613 20.9364 24.6308 21.1006 24.6331 21.2648C24.6353 21.6073 24.6576 21.9518 24.7511 22.2883C24.8491 22.6531 25.0384 22.9916 25.2611 23.2996C25.368 23.4496 25.4726 23.5996 25.5283 23.7658C25.584 23.932 25.5795 24.1083 25.5795 24.2867C25.5795 24.7245 25.6575 25.1521 25.7221 25.5777C25.731 25.6406 25.7154 25.7075 25.7221 25.7703C25.7622 26.1006 25.7933 26.433 25.7622 26.7634C25.7466 26.9012 25.6953 27.0309 25.6597 27.1627C25.6241 27.2944 25.584 27.4302 25.5773 27.5721C25.5706 27.714 25.6018 27.8538 25.653 27.9835C25.7332 28.1862 25.8913 28.3666 26.1007 28.474C26.2989 28.5774 26.5349 28.6179 26.7599 28.5834C26.8512 28.6219 26.9536 28.6463 27.0538 28.6544C27.3322 28.6807 27.6061 28.6179 27.86 28.5591C28.0315 28.5206 28.1963 28.4659 28.37 28.4659C28.7308 28.4659 29.0492 28.6503 29.3944 28.7841C29.5815 28.8571 29.7841 28.9179 29.9957 28.9239C30.2117 28.932 30.4055 28.8591 30.5992 28.8307C30.7885 28.8003 30.9778 28.8429 31.1693 28.8834C31.3586 28.9219 31.5746 28.9624 31.7795 28.8712C31.8397 28.8429 31.8931 28.8023 31.9332 28.7496C31.9733 28.699 32 28.628 31.9911 28.5571L32 28.5672ZM19.6245 14.7365C19.3439 14.7426 19.0589 14.769 18.7827 14.7973C18.5088 14.8257 18.2326 14.8217 17.9765 14.7244C17.7449 14.6413 17.549 14.4913 17.3797 14.3251C17.3864 14.2967 17.3908 14.2663 17.3931 14.238C17.3997 14.1163 17.3597 14.0008 17.3107 13.8853C17.2817 13.8144 17.2394 13.7434 17.2171 13.6725C17.1815 13.5651 17.157 13.4556 17.1459 13.3441C17.1414 13.3016 17.1459 13.259 17.1548 13.2144C17.206 13.1739 17.2528 13.1273 17.304 13.0888C17.4376 12.9935 17.5734 12.9023 17.687 12.7888C17.8117 12.6672 17.9209 12.5334 18.0367 12.4078C18.1502 12.2862 18.2727 12.1706 18.393 12.0531C18.54 11.9132 18.6647 11.7572 18.7827 11.5971C18.8005 11.5727 18.8384 11.5646 18.8562 11.5403C18.952 11.4187 19.0366 11.289 19.1301 11.1654C19.168 11.1147 19.2281 11.0782 19.2682 11.0275C19.3239 10.9566 19.3751 10.8796 19.4308 10.8066C19.4285 10.8715 19.4308 10.9363 19.4219 11.0012C19.3929 11.1796 19.3528 11.3559 19.3328 11.5342C19.315 11.7288 19.3083 11.9254 19.286 12.12C19.266 12.3085 19.2214 12.4949 19.1947 12.6854C19.1591 12.9145 19.1613 13.1475 19.1969 13.3786C19.2014 13.4131 19.1813 13.4495 19.188 13.484C19.217 13.6644 19.2749 13.8387 19.3484 14.0069C19.3773 14.0758 19.3862 14.1528 19.4219 14.2217C19.4931 14.3555 19.5933 14.4731 19.6847 14.5926C19.7225 14.6433 19.7648 14.6919 19.8116 14.7386C19.7515 14.7386 19.6891 14.7386 19.629 14.7386L19.6245 14.7365Z"/>
</svg>
