<svg width="36" height="54" viewBox="0 0 36 54" fill="none" xmlns="http://www.w3.org/2000/svg">
<path d="M35.6451 2.89244C35.7688 2.77043 35.8967 2.63395 35.9565 2.4561C36.0246 2.26585 36.0019 2.06113 35.9606 1.87915C35.9215 1.69924 35.874 1.51933 35.8493 1.34149C35.8142 1.12849 35.8369 0.913425 35.8204 0.685952C35.8183 0.652865 35.8348 0.61771 35.8307 0.584623C35.8101 0.406781 35.7317 0.226871 35.5915 0.111066C35.5358 0.0635036 35.4739 0.0138732 35.3935 0.00146554C35.3543 -0.00267033 35.311 0.00146554 35.2739 0.020077C35.2347 0.0386884 35.2079 0.0779792 35.1955 0.113134C35.177 0.1669 35.1625 0.216531 35.146 0.266161C35.1233 0.241346 35.0965 0.220667 35.0676 0.202055C34.9893 0.156561 34.8944 0.135881 34.7995 0.150357C34.7026 0.1669 34.6222 0.218599 34.5583 0.282705C34.4716 0.371626 34.4345 0.48743 34.3995 0.594963C34.3273 0.826572 34.3376 1.06232 34.3108 1.28152C34.284 1.51933 34.187 1.75094 34.0509 1.95566C33.921 2.15625 33.7581 2.33616 33.6055 2.52435C33.4198 2.75182 33.2693 3.00618 33.1435 3.27087C33.1249 3.31016 33.0899 3.34118 33.0713 3.38047C32.9744 3.58727 32.8919 3.80026 32.8156 4.01326C32.7826 4.10011 32.7352 4.18283 32.7022 4.27175C32.663 4.38756 32.6279 4.50336 32.5929 4.61917L32.5743 4.64191L32.2608 5.01828C32.1536 5.14235 32.0484 5.26643 31.9432 5.39051C31.8009 5.55801 31.6669 5.73378 31.5204 5.89715L30.5821 6.90423C30.2459 7.27026 29.916 7.64455 29.586 8.01678C29.2622 8.3766 28.9425 8.74056 28.6311 9.11072C28.2578 9.56153 27.9258 10.0475 27.6371 10.5583C27.5958 10.6348 27.536 10.701 27.4948 10.7775C27.2721 11.1745 27.1174 11.6109 26.7874 11.921C26.6513 12.0472 26.4842 12.132 26.3296 12.2395C26.0223 12.4525 25.7665 12.7296 25.5397 13.0233C25.3706 13.2404 25.2242 13.472 25.088 13.7098C24.9684 13.7905 24.855 13.8794 24.7436 13.9704C24.6673 14.0345 24.6013 14.1131 24.525 14.1792C24.3642 14.3136 24.2012 14.446 24.0486 14.5907C23.8836 14.7479 23.729 14.9133 23.566 15.0705C23.4093 15.2256 23.2443 15.3724 23.0835 15.5234C22.8875 15.7033 22.7061 15.8998 22.5349 16.1045C22.5081 16.1334 22.4689 16.152 22.4441 16.181C22.3245 16.3216 22.209 16.4664 22.0956 16.6111C21.4563 16.5904 20.817 16.576 20.1818 16.5015C19.7569 16.4498 19.3321 16.3774 18.9237 16.2451C18.3112 16.03 17.7338 15.7157 17.1048 15.5399C16.7294 15.4345 16.3458 15.3435 15.9519 15.3228C15.5518 15.3001 15.1435 15.3559 14.7661 15.5089C14.5784 15.5854 14.4052 15.6909 14.2361 15.7881C14.067 15.8853 13.8875 15.9577 13.6957 15.999C13.5143 16.0404 13.3266 16.0404 13.141 16.0176C13.0956 16.0114 13.0461 16.0073 12.9966 16.0073C13.042 15.8667 13.075 15.7219 13.0997 15.5751C13.1224 15.4303 13.1348 15.2856 13.1513 15.1408C13.176 14.9237 13.1987 14.7086 13.2152 14.4915C13.2235 14.3612 13.242 14.2309 13.24 14.0965C13.2338 13.8194 13.108 13.563 12.943 13.3541C12.9306 13.3376 12.9203 13.319 12.91 13.3024C12.9409 13.1039 12.9451 12.8992 12.9141 12.6965C12.8502 12.2871 12.6522 11.9128 12.415 11.5902C12.2686 11.3875 12.0995 11.2076 11.9366 11.0236C11.8128 10.8871 11.685 10.7444 11.5179 10.6555C11.3509 10.5665 11.1632 10.5397 10.9817 10.5169C10.7611 10.4942 10.5424 10.459 10.3218 10.4404C10.097 10.4218 9.87012 10.4197 9.64533 10.4404C9.4226 10.459 9.18956 10.4859 8.9792 10.581C8.88021 10.6265 8.78328 10.672 8.6946 10.7423C8.67397 10.7568 8.65954 10.7775 8.6451 10.8002C8.57911 10.7671 8.50693 10.7423 8.43268 10.7299C8.28419 10.703 8.12952 10.7113 7.98309 10.7506C7.83461 10.7899 7.70262 10.8623 7.57888 10.945C7.41389 11.0587 7.27984 11.2055 7.1396 11.34C6.84881 11.6212 6.54565 11.8859 6.23837 12.1485C5.90633 12.4339 5.57017 12.7131 5.21133 12.9633C4.86485 13.2094 4.49982 13.4306 4.12654 13.6333C3.67695 13.8773 3.21912 14.1069 2.74066 14.2868C2.66847 14.3116 2.59217 14.3178 2.51999 14.3426C2.14464 14.4646 1.75486 14.5494 1.3589 14.5659C1.2764 14.5701 1.19597 14.5659 1.11348 14.5556C1.03099 14.5494 0.950556 14.5391 0.870125 14.5266C0.789694 14.5184 0.711326 14.508 0.632957 14.4894L0.515404 14.4667C0.467971 14.4584 0.4226 14.4419 0.377228 14.4315C0.0864401 14.2847 0.296798 14.5804 0.416413 14.6797C0.562838 14.8079 0.746385 14.8865 0.938182 14.9196C0.934057 14.9196 0.92787 14.9216 0.923745 14.9237C0.731949 14.9919 0.556651 15.1098 0.416413 15.2608C0.338044 15.3455 0.280299 15.4448 0.228741 15.5441C0.224616 15.5482 0.218429 15.5503 0.214304 15.5544L0.220491 15.5606C0.220491 15.5606 0.212242 15.5751 0.208117 15.5834L0.135936 15.726L0.259676 15.6433C0.251426 15.6557 0.241115 15.6681 0.232865 15.6826C0.166871 15.786 0.11325 15.8977 0.0761285 16.0156C0.0575675 16.0735 0.0431312 16.1334 0.0328196 16.1934C0.0286949 16.2079 0.0266326 16.2244 0.0245703 16.2389C0.0204456 16.2637 0.0163209 16.2865 0.0163209 16.3092L0.010134 16.3754C0.010134 16.3981 0.00600931 16.4209 0.010134 16.4312L0.127687 16.3051L0.197806 16.2348C0.404039 16.03 0.641206 15.8563 0.915496 15.7736C1.24341 15.6702 1.594 15.6268 1.93841 15.5544C1.98997 15.5441 2.04359 15.5544 2.09515 15.5441C2.36325 15.4944 2.63135 15.4345 2.89739 15.3807C2.99432 15.3621 3.09538 15.3559 3.19437 15.3414C3.24593 15.3414 3.29749 15.3373 3.34904 15.3373C3.45628 15.3373 3.56559 15.3228 3.67489 15.3311C3.90175 15.3476 4.1286 15.3828 4.35752 15.3931C4.60706 15.4034 4.85867 15.3931 5.10615 15.3559C5.34538 15.3166 5.58254 15.2608 5.81353 15.178C6.09194 15.0809 6.34973 14.9299 6.5869 14.7583C6.62196 14.7334 6.66733 14.721 6.70239 14.6962C6.88594 14.5597 7.05505 14.4067 7.22003 14.2516C7.28809 14.1875 7.37058 14.1379 7.43864 14.0738C7.54382 13.9766 7.64281 13.8752 7.74386 13.776C7.75005 13.8132 7.7583 13.8504 7.76861 13.8856C7.78717 13.9476 7.82017 14.0035 7.84079 14.0634C7.88204 14.1896 7.92535 14.3157 7.99341 14.4315C8.06559 14.5577 8.15427 14.6714 8.24089 14.7851C8.32544 14.8947 8.40793 15.0085 8.50074 15.1139C8.61004 15.2421 8.74203 15.3497 8.88021 15.4448C8.90083 15.4593 8.90908 15.4882 8.92764 15.5027C9.03282 15.5792 9.14212 15.6475 9.2473 15.7219C9.26586 15.7364 9.28236 15.7529 9.29886 15.7715C9.25349 15.7902 9.2143 15.8108 9.17718 15.8315C9.02457 15.9163 8.88639 16.03 8.76472 16.1582C8.61417 16.3133 8.4863 16.4891 8.37081 16.6711C8.25326 16.851 8.16045 17.0475 8.04909 17.217C7.90473 17.4507 7.6655 17.612 7.46751 17.8291C7.05298 18.282 6.855 18.8693 6.6199 19.409C6.36417 19.9963 6.03213 20.5526 5.68979 21.1006C5.35775 21.6321 5.01747 22.1635 4.75555 22.7384C4.60088 23.0879 4.47507 23.4498 4.41527 23.8344C4.38846 24.0267 4.41114 24.2356 4.4957 24.4155C4.57819 24.5954 4.71018 24.7505 4.8731 24.8601C4.97003 24.9242 5.07109 24.9904 5.18451 25.0193C5.48355 25.0979 5.8094 25.0483 6.06719 24.8849C6.32704 24.7236 6.51265 24.4858 6.70033 24.2604C6.855 24.0722 7.03236 23.9068 7.2056 23.7372C7.37677 23.5718 7.55207 23.4105 7.73768 23.2595C7.92329 23.1086 8.12127 22.968 8.28007 22.7839C8.40381 22.6433 8.50486 22.4882 8.63067 22.3558C8.75647 22.2235 8.90083 22.1098 9.06169 22.025C9.21224 21.9443 9.37723 21.8947 9.54634 21.8782C9.5484 21.9009 9.55046 21.9236 9.55253 21.9464C9.57109 22.0891 9.59584 22.2297 9.63502 22.3683C9.65977 22.4613 9.70308 22.5502 9.73195 22.6433C9.79176 22.8356 9.85569 23.03 9.95468 23.2078C10.0619 23.4002 10.198 23.5759 10.3527 23.731C10.5012 23.8841 10.6703 24.0164 10.8497 24.1322C11.0663 24.2728 11.3014 24.3721 11.5365 24.4693C11.5715 24.4838 11.5984 24.5148 11.6334 24.5292C11.8149 24.6058 12.0026 24.6719 12.1861 24.7443C12.1923 24.7464 12.1985 24.7505 12.2047 24.7547C12.2047 24.7547 12.2047 24.7547 12.2067 24.7567C12.3552 24.9097 12.512 25.0566 12.679 25.191C12.7904 25.282 12.9141 25.3564 13.0296 25.4433C13.2688 25.6232 13.5122 25.801 13.77 25.952C14.0505 26.1154 14.3433 26.258 14.6362 26.3966L15.4941 26.7936C15.8385 26.9529 16.1891 27.0935 16.5314 27.2548C16.583 27.2775 16.6222 27.321 16.6737 27.3458C16.9357 27.4781 17.179 27.6353 17.4306 27.7966C17.5358 27.8607 17.6369 27.9372 17.7565 27.9744C17.9524 28.0385 18.1586 28.0365 18.3587 28.0137C18.369 28.0241 18.3793 28.0344 18.3896 28.0447C18.4123 28.0613 18.4412 28.0675 18.4618 28.084C18.503 28.1213 18.5402 28.1667 18.5876 28.1978C18.6371 28.2329 18.6928 28.2619 18.7423 28.3012C18.7897 28.3384 18.8268 28.3839 18.866 28.4314C18.9114 28.4873 18.9691 28.5307 19.031 28.57C19.0392 28.5762 19.0372 28.5969 19.0454 28.6031C19.0722 28.6217 19.099 28.6382 19.1279 28.6548C19.1279 28.6631 19.1238 28.6713 19.1238 28.6796C19.1094 28.7561 19.099 28.8347 19.0887 28.9112C19.064 29.1015 19.0475 29.2938 19.0372 29.4861C19.031 29.6143 19.0413 29.7446 19.033 29.8749C19.0166 30.1437 18.9959 30.4125 18.9939 30.6834C18.9939 30.975 19.0021 31.2686 19.0083 31.5602L19.0166 32.4122C19.0227 32.7555 19.0578 33.0988 19.1155 33.4379C19.1217 33.4875 19.1155 33.5413 19.1217 33.5909C19.165 33.8536 19.2269 34.1141 19.2908 34.3726C19.3176 34.4802 19.3259 34.5898 19.3548 34.6973C19.3857 34.8172 19.4228 34.9351 19.4599 35.055C19.4723 35.2163 19.4888 35.3776 19.5115 35.5369C19.5548 35.845 19.6126 36.151 19.66 36.4571C19.7054 36.7549 19.7404 37.0547 19.7755 37.3546C19.8147 37.7165 19.8724 38.0763 19.9384 38.434C19.9487 38.4878 19.9384 38.5436 19.9508 38.5974C20.0044 38.8766 20.0828 39.1537 20.1941 39.4163C20.2395 39.5238 20.2766 39.6376 20.3344 39.741C20.4478 39.9436 20.588 40.1277 20.7077 40.3241C20.7819 40.4441 20.8541 40.5661 20.918 40.6922C20.9201 40.7129 20.9221 40.7336 20.9242 40.7543L20.9861 41.2258L21.1346 42.3838C21.1676 42.6444 21.2129 42.9029 21.2377 43.1634C21.2872 43.7073 21.316 44.2532 21.3429 44.7992C21.3717 45.3906 21.3924 45.982 21.382 46.5734C21.3717 47.1483 21.3222 47.7232 21.2212 48.2878C21.0995 48.9702 20.9056 49.6361 20.621 50.2668C20.5798 50.3598 20.5179 50.4446 20.4746 50.5377C20.2374 51.0195 19.9673 51.4848 19.6703 51.9356C19.5466 52.1217 19.4063 52.2934 19.262 52.4609C19.1197 52.6242 18.9629 52.7772 18.7773 52.8889C18.6845 52.9427 18.5855 52.9882 18.4803 53.0151C18.3752 53.0399 18.2679 53.0502 18.1586 53.0419C17.9916 53.0316 17.8204 52.9944 17.6472 53.0337C17.5605 53.0564 17.4822 53.1061 17.4244 53.1743C17.3667 53.2405 17.3234 53.3294 17.3358 53.4245C17.3481 53.5217 17.4244 53.5941 17.5028 53.6292C17.5832 53.6665 17.6657 53.6892 17.7462 53.712C17.7792 53.7202 17.8142 53.7264 17.8472 53.7347C17.8637 53.7575 17.8823 53.7802 17.907 53.7967C17.9606 53.8402 18.0246 53.865 18.0844 53.8919C18.1421 53.9167 18.1999 53.9477 18.2597 53.9725C18.3339 54.0015 18.4123 54.0077 18.4907 53.9973C18.501 53.9973 18.5133 54.0139 18.5237 54.0139C18.5835 54.0097 18.6433 53.9932 18.701 53.9808C18.7258 53.9767 18.7505 53.9911 18.7753 53.987C18.8124 53.9808 18.8474 53.9684 18.8825 53.958C18.9382 53.9663 18.9939 53.9767 19.0516 53.9808C19.2888 54.0056 19.5321 54.0097 19.7734 53.9725C19.9363 53.9477 20.091 53.8898 20.2416 53.8236C20.3983 53.7554 20.5468 53.6623 20.6726 53.5445C20.7984 53.4286 20.9036 53.2963 21.0129 53.1722C21.2397 52.8972 21.547 52.7028 21.8873 52.5849C22.2173 52.4691 22.5638 52.4133 22.9082 52.3368C23.1144 52.2892 23.333 52.2313 23.5062 52.0804C23.6795 51.9294 23.7578 51.6916 23.7434 51.4724C23.7393 51.4083 23.7517 51.34 23.7393 51.2759C23.6753 50.9409 23.5186 50.6431 23.4114 50.335C23.3681 50.2068 23.3474 50.0703 23.3186 49.94C23.2588 49.6815 23.2113 49.4148 23.2072 49.148C23.2031 48.8957 23.2258 48.6455 23.2629 48.3953C23.2711 48.3601 23.2773 48.325 23.2876 48.2919C23.3454 48.0996 23.4093 47.9093 23.4526 47.7149C23.5021 47.504 23.5351 47.2889 23.5825 47.078C23.6238 46.8712 23.6774 46.6665 23.7248 46.4618C23.7847 46.2136 23.8218 45.9613 23.8465 45.707C23.8506 45.6698 23.8733 45.6346 23.8775 45.5974C23.8981 45.4009 23.9084 45.2024 23.9208 45.0059C23.927 44.9253 23.9496 44.8446 23.9558 44.764C23.9682 44.6027 23.962 44.4414 23.9764 44.2822C23.9826 44.216 23.9868 44.1478 23.9909 44.0816C24.0569 43.9223 24.1126 43.7569 24.1517 43.5894C24.1827 43.4695 24.1868 43.3454 24.2095 43.2234C24.2507 42.9711 24.2879 42.7147 24.2879 42.4582C24.2879 42.1791 24.2569 41.904 24.2219 41.629C24.1868 41.3622 24.1394 41.0975 24.0754 40.8349C24.0383 40.6757 23.9847 40.5206 23.927 40.3696C23.8671 40.2187 23.795 40.0719 23.7269 39.925C23.7063 39.8816 23.7022 39.8299 23.6836 39.7865C23.5784 39.559 23.4671 39.3357 23.3887 39.0979C23.3557 38.9986 23.3474 38.8952 23.3248 38.7959C23.2814 38.5974 23.2423 38.3968 23.234 38.1921C23.2216 37.9191 23.234 37.6462 23.234 37.3732C23.3124 37.1333 23.3907 36.8934 23.465 36.6515C23.533 36.4261 23.5846 36.1945 23.6444 35.967C23.7723 35.4914 23.8692 35.0013 23.8671 34.5029C23.8651 33.9673 23.7908 33.44 23.8135 32.9085C23.828 32.3915 23.894 31.8787 23.9909 31.372C24.1064 30.7599 24.2342 30.1499 24.3621 29.5378C24.3807 29.4468 24.4198 29.3599 24.4384 29.271C24.5395 28.7975 24.6364 28.3218 24.7148 27.8421C24.7457 27.6436 24.7911 27.4471 24.8034 27.2444C24.8323 26.8474 24.7808 26.4462 24.6735 26.0637C24.5725 25.7059 24.4095 25.3647 24.193 25.0628C24.2342 25.0193 24.2734 24.9739 24.3105 24.9263C24.5065 24.6802 24.657 24.3969 24.7519 24.095C24.8158 23.8923 24.8406 23.6773 24.8591 23.4684C24.9004 23.0341 24.8983 22.5916 25.088 22.2111C25.187 22.0043 25.319 21.8058 25.4325 21.599C25.5479 21.3922 25.6552 21.1813 25.7562 20.9703C25.9563 20.5567 26.1357 20.1328 26.2863 19.7006C26.4409 19.2664 26.5585 18.8238 26.6843 18.3833C26.8266 18.3068 26.9689 18.2345 27.1091 18.16C27.47 17.9718 27.8248 17.7692 28.1898 17.5955C28.4166 17.4921 28.6517 17.4031 28.9034 17.3928C29.091 17.3845 29.2869 17.4176 29.4787 17.3866C29.6705 17.3576 29.8541 17.2853 30.0149 17.1777C30.2088 17.0516 30.3697 16.8675 30.4852 16.667C30.6048 16.4705 30.7203 16.2596 30.9141 16.1913C31.0069 16.1562 31.1224 16.1624 31.242 16.1562C31.3596 16.152 31.4998 16.121 31.5803 16.0197C31.6483 15.9349 31.6834 15.8294 31.6875 15.7198C31.7019 15.6619 31.6957 15.602 31.6957 15.5503C31.6957 15.4696 31.6731 15.3952 31.6504 15.3228C31.6339 15.2814 31.6298 15.2297 31.6091 15.1822C31.5803 15.1077 31.5143 15.056 31.438 15.0374C31.4441 14.994 31.4462 14.9506 31.4421 14.9092C31.4338 14.8162 31.3926 14.7376 31.3472 14.6673C31.3183 14.6259 31.2957 14.5742 31.2585 14.5308C31.1843 14.4419 31.0688 14.4108 30.9616 14.4253C30.9574 14.4253 30.9533 14.4253 30.9492 14.4253C30.8997 14.3922 30.8502 14.3653 30.8048 14.3426C30.6378 14.264 30.4645 14.1978 30.2872 14.1482C30.1985 14.1234 30.1098 14.1006 30.017 14.082C29.9242 14.0634 29.8252 14.051 29.72 14.0634C29.6561 14.0717 29.5901 14.0965 29.5344 14.1358C29.4787 14.1772 29.4416 14.2351 29.4169 14.2909C29.3674 14.4046 29.3591 14.5163 29.3158 14.6176C29.1859 14.9278 28.8126 15.0602 28.6579 15.3745C28.6105 15.4655 28.5816 15.571 28.5961 15.6785C28.6043 15.7323 28.6291 15.7881 28.6146 15.8088C28.6064 15.8294 28.5589 15.8356 28.5074 15.8481C28.1877 15.9142 27.8763 16.0073 27.569 16.1169C27.7031 15.8315 27.8413 15.5461 28.0021 15.2752C28.2764 14.81 28.5775 14.3633 28.8848 13.9207C28.9034 13.8939 28.924 13.867 28.9384 13.8442C28.9508 13.8235 28.9632 13.8008 28.9735 13.7843C29.091 13.6726 29.2106 13.5609 29.3282 13.4513C29.5035 13.288 29.6705 13.1142 29.8458 12.9488C30.0273 12.7751 30.2067 12.5952 30.3697 12.4029C30.5285 12.2064 30.6811 11.9996 30.7883 11.766C30.8234 11.706 30.844 11.6398 30.8687 11.5757C30.8935 11.5116 30.9203 11.4475 30.9389 11.3813C30.9781 11.249 31.0069 11.1166 31.0399 10.9843C31.0997 10.7196 31.1925 10.4652 31.3513 10.246C31.5019 10.031 31.6751 9.82829 31.8319 9.6153C31.9907 9.40437 32.1474 9.19137 32.2979 8.97217C32.4794 8.70954 32.6506 8.43864 32.8094 8.15947C32.9682 7.88237 33.1105 7.59492 33.259 7.31368C33.3044 7.23097 33.3642 7.15652 33.4116 7.0738C33.6529 6.64781 33.9189 6.22388 34.3067 5.91783C34.4655 5.79375 34.6511 5.70483 34.8408 5.64279C35.0243 5.57455 35.2347 5.54767 35.4121 5.43186C35.5874 5.3202 35.7132 5.14235 35.7853 4.9521C35.8967 4.65639 35.8926 4.31931 35.7895 4.02153C35.6946 3.73202 35.5317 3.47353 35.3564 3.22951C35.4038 3.19022 35.4512 3.14886 35.4966 3.10544C35.5585 3.0496 35.608 2.97929 35.6699 2.92139L35.6451 2.89244ZM19.2455 20.3375C19.2248 20.3686 19.2001 20.4037 19.163 20.4161C19.1259 20.4285 19.0867 20.4161 19.0495 20.4016C18.6371 20.2466 18.2226 20.0915 17.8101 19.9364C17.7503 19.9136 17.6884 19.8909 17.643 19.8454C17.577 19.7792 17.5585 19.682 17.5296 19.5931C17.4925 19.4752 17.4306 19.3656 17.3502 19.2705C17.3089 19.2229 17.2636 19.1774 17.2409 19.1175C17.2182 19.0616 17.2203 18.9996 17.2182 18.9376C17.212 18.7618 17.1666 18.5881 17.0883 18.433L17.3254 18.7266C17.8678 19.1423 18.6226 19.0864 19.3011 19.012C19.6002 18.9789 19.8992 18.9458 20.1983 18.9127C19.8807 19.3884 19.561 19.864 19.2434 20.3375H19.2455Z" fill="#D62422"/>
</svg>
